# xmcd
#
# Track frame offsets: 
#        150
#        12472
#        22238
#        39757
#        50563
#        63789
#        66056
#        80086
#        92241
#        111942
#        119732
#        130482
#        153456
#        166974
#
# Disc length: 2555 seconds
#
# Revision: 6
# Processed by: cddbd v1.5.2PL0 Copyright (c) Steve Scherf et al.
# Submitted via: ExactAudioCopy v0.95b4
#
DISCID=c309f90e
DTITLE=Robbie Fulks - The Very Best of Robbie Fulks
DYEAR=1999
DGENRE=Country
TTITLE0=Jean Arthur
TTITLE1=Sleepin' on the Job of Love
TTITLE2=Roots Rock Weirdoes
TTITLE3=May the Best Man Win
TTITLE4=Hamilton County Breakdown
TTITLE5=Gravid and Tense
TTITLE6=Parallel Bars
TTITLE7=Love Ain't Nothin'
TTITLE8=I Just Want to Meet the Man
TTITLE9=Wedding of the Bugs
TTITLE10=You Break It - You Pay
TTITLE11=White Man's Bourbon
TTITLE12=That Bangle Girl
TTITLE13=Jello Goodbye
EXTD=ID3G:   2
EXTT0=
EXTT1=
EXTT2=
EXTT3=
EXTT4=
EXTT5=
EXTT6=
EXTT7=
EXTT8=
EXTT9=
EXTT10=
EXTT11=
EXTT12=
EXTT13=
PLAYORDER=
